<svg width="150" height="150" viewBox="0 0 150 150" fill="none" xmlns="http://www.w3.org/2000/svg">
<path d="M19.6777 74.6777L19.6777 85.1127C19.6777 87.7854 16.4463 89.1239 14.5564 87.234L4.12133 76.799C2.94975 75.6274 2.94975 73.7279 4.12133 72.5564L14.5564 62.1213C16.4462 60.2314 19.6777 61.5699 19.6777 64.2426L19.6777 74.6777Z" fill="#2B2B2B"/>
<path d="M129.678 74.6777L129.678 85.1127C129.678 87.7854 132.909 89.1239 134.799 87.234L145.234 76.799C146.406 75.6274 146.406 73.7279 145.234 72.5563L134.799 62.1213C132.909 60.2314 129.678 61.5699 129.678 64.2426L129.678 74.6777Z" fill="#2B2B2B"/>
<path d="M14.6777 74.6777H34.6777" stroke="#2B2B2B" stroke-width="9" stroke-linecap="round"/>
<path d="M115 74.68H135" stroke="#2B2B2B" stroke-width="9" stroke-linecap="round"/>
<path d="M74.6777 22.6777L85.1128 22.6777C87.7855 22.6777 89.124 19.4462 87.2341 17.5564L76.799 7.12133C75.6275 5.94976 73.728 5.94976 72.5564 7.12133L62.1214 17.5564C60.2315 19.4463 61.57 22.6777 64.2427 22.6777L74.6777 22.6777Z" fill="#2B2B2B"/>
<path d="M74.6777 34L74.6777 14" stroke="#2B2B2B" stroke-width="9" stroke-linecap="round"/>
<path d="M114.178 84.1777C114.178 111.465 95.7812 132.178 74.6777 132.178C53.5743 132.178 35.1777 111.465 35.1777 84.1777C35.1777 56.8908 53.5743 36.1777 74.6777 36.1777C95.7812 36.1777 114.178 56.8908 114.178 84.1777Z" stroke="#2B2B2B" stroke-width="9"/>
<circle cx="57.6777" cy="79.6777" r="5" fill="#2B2B2B"/>
<circle cx="92.6777" cy="79.6777" r="5" fill="#2B2B2B"/>
<path d="M64 110C67.2227 111.906 70.9834 113 75 113C79.0166 113 82.7773 111.906 86 110" stroke="#2B2B2B" stroke-width="9" stroke-linecap="round"/>
</svg>
