<svg width="150" height="150" viewBox="0 0 150 150" fill="none" xmlns="http://www.w3.org/2000/svg">
<path d="M23 43C34.8587 24.1761 53.7391 12 75.0048 12C96.2704 12 115.151 24.1761 127.01 43" stroke="#2B2B2B" stroke-width="9" stroke-linecap="round"/>
<path d="M114.505 84.5C114.505 111.787 96.1082 132.5 75.0048 132.5C53.9013 132.5 35.5048 111.787 35.5048 84.5C35.5048 57.2131 53.9013 36.5 75.0048 36.5C96.1082 36.5 114.505 57.2131 114.505 84.5Z" stroke="#2B2B2B" stroke-width="9"/>
<path d="M64 110C67.2227 111.906 70.9834 113 75 113C79.0166 113 82.7773 111.906 86 110" stroke="#2B2B2B" stroke-width="9" stroke-linecap="round"/>
<circle cx="58.0048" cy="80" r="5" fill="#2B2B2B"/>
<circle cx="93.0048" cy="80" r="5" fill="#2B2B2B"/>
<path d="M126.381 42.3766L117.161 48.0932C114.132 49.971 114.886 54.5733 118.355 55.3871L133.292 58.8908C135.443 59.3953 137.596 58.0607 138.1 55.91L141.604 40.973C142.418 37.5036 138.63 34.7821 135.602 36.6599L126.381 42.3766Z" fill="#2B2B2B"/>
<path d="M23.4277 42.3766L32.648 48.0932C35.6768 49.971 34.9232 54.5733 31.4537 55.3871L16.5168 58.8908C14.366 59.3953 12.2135 58.0607 11.709 55.91L8.20531 40.973C7.3915 37.5036 11.1786 34.7821 14.2074 36.6599L23.4277 42.3766Z" fill="#2B2B2B"/>
</svg>
