<svg width="150" height="150" viewBox="0 0 150 150" fill="none" xmlns="http://www.w3.org/2000/svg">
<path d="M114.505 80.5C114.505 107.787 96.1082 128.5 75.0048 128.5C53.9013 128.5 35.5048 107.787 35.5048 80.5C35.5048 53.2131 53.9013 32.5 75.0048 32.5C96.1082 32.5 114.505 53.2131 114.505 80.5Z" stroke="#2B2B2B" stroke-width="9"/>
<circle cx="58.0048" cy="76" r="5" fill="#2B2B2B"/>
<path d="M66.4594 58.7237L67.3388 46.1469C67.5874 42.592 72.01 41.1122 74.3479 43.8017L86.0453 57.2579C87.4946 58.9252 87.3179 61.4517 85.6507 62.901L72.1944 74.5983C69.5049 76.9363 65.3313 74.8554 65.5799 71.3005L66.4594 58.7237Z" fill="#2B2B2B"/>
<circle cx="93.0048" cy="76" r="5" fill="#2B2B2B"/>
<path d="M95.7135 52.3833C93.2905 52.9361 91.7743 55.3484 92.327 57.7714C92.8797 60.1945 95.292 61.7107 97.7151 61.1579L95.7135 52.3833ZM75 20.5C87.7705 20.5 99.1149 22.8328 107.098 26.4166C115.508 30.1919 118.5 34.4774 118.5 37.5482L127.5 37.5482C127.5 28.7183 119.747 22.2297 110.784 18.206C101.395 13.9909 88.7392 11.5 75 11.5L75 20.5ZM31.5 37.5482C31.5 34.4774 34.4923 30.1919 42.9018 26.4166C50.8851 22.8328 62.2295 20.5 75 20.5L75 11.5C61.2608 11.5 48.6053 13.9909 39.2159 18.206C30.2529 22.2297 22.5 28.7183 22.5 37.5482L31.5 37.5482ZM118.5 37.5482C118.5 39.6772 117.139 42.4099 113.085 45.3145C109.101 48.1696 103.143 50.6886 95.7135 52.3833L97.7151 61.1579C105.884 59.2946 113.069 56.3986 118.328 52.6301C123.517 48.9112 127.5 43.8117 127.5 37.5482L118.5 37.5482ZM70.6193 54.504C58.8899 54.0066 48.6776 51.5424 41.5594 48.0499C34.1013 44.3905 31.5 40.4242 31.5 37.5482L22.5 37.5482C22.5 45.8809 29.4303 52.1237 37.5951 56.1297C46.0998 60.3026 57.6018 62.96 70.2379 63.496L70.6193 54.504Z" fill="#2B2B2B"/>
<path d="M64 106C67.2227 107.906 70.9834 109 75 109C79.0166 109 82.7773 107.906 86 106" stroke="#2B2B2B" stroke-width="9" stroke-linecap="round"/>
</svg>
