<svg width="1114" height="659" viewBox="0 0 1114 659" fill="none" xmlns="http://www.w3.org/2000/svg">
<path d="M276 157.49C276 198.078 306.047 231.92 349.5 230.981C349.5 230.981 381.503 232.412 408.798 209.734M276 157.49C276 116.903 308.907 84 349.5 84C390.093 84 423 116.903 423 157.49H276Z" stroke="#373737" stroke-width="42" stroke-linecap="round" stroke-linejoin="round"/>
<path d="M945 446.49C945 487.078 975.047 520.92 1018.5 519.981C1018.5 519.981 1050.5 521.412 1077.8 498.734M945 446.49C945 405.903 977.907 373 1018.5 373C1059.09 373 1092 405.903 1092 446.49H945Z" stroke="#373737" stroke-width="42" stroke-linecap="round" stroke-linejoin="round"/>
<path d="M208.452 91.9269C210.619 56.0939 183.328 25.2883 147.495 23.1207C111.662 20.9531 80.8564 48.2443 78.6888 84.0773C76.5212 119.91 103.812 150.716 139.645 152.883C200.286 156.552 246.471 208.684 242.803 269.325C239.135 329.965 187.002 376.15 126.362 372.482C65.7211 368.814 19.536 316.681 23.2042 256.041C24.4769 235.003 31.5827 215.705 42.8533 199.624" stroke="#373737" stroke-width="42" stroke-linecap="round"/>
<path d="M309.523 351.691C341.355 299.947 409.107 283.805 460.851 315.637C512.595 347.47 528.736 415.222 496.904 466.966C465.071 518.709 397.32 534.851 345.576 503.019C327.624 491.975 313.958 476.608 305.093 459.086M306.801 292.656L302.266 636.046" stroke="#373737" stroke-width="42" stroke-linecap="round"/>
<circle cx="637.5" cy="446.5" r="73.5" stroke="#373737" stroke-width="42"/>
<path d="M635.001 306.155C579.736 331.25 514.627 306.716 489.575 251.358C484.011 239.063 480.891 226.282 480.009 213.562L479.001 35M584.227 121.545L481 121.5" stroke="#373737" stroke-width="42" stroke-linecap="round" stroke-linejoin="round"/>
<path d="M755.233 494.315C755.233 494.315 775.787 517.977 820.4 520.426C869.646 523.129 895.33 505.51 896.7 480.548C898.071 455.585 871.072 436.577 824.839 439.547C777.809 442.569 769.521 416.481 771.204 404.054C772.888 391.628 783.537 370.952 834.128 373.958C858.423 375.401 878.338 385.238 878.338 385.238" stroke="#373737" stroke-width="42" stroke-linecap="round"/>
</svg>
